<svg width="17" height="15" viewBox="0 0 17 15" fill="none" xmlns="http://www.w3.org/2000/svg">
<path d="M15.7188 6.84376H2.62689L7.63998 2.06888C7.90248 1.81885 7.91266 1.40345 7.66262 1.14095C7.41292 0.878773 6.99752 0.868273 6.73469 1.1183L1.00956 6.57174C0.761828 6.81981 0.625 7.14925 0.625 7.50001C0.625 7.85045 0.761828 8.18021 1.02105 8.43911L6.73502 13.8814C6.862 14.0025 7.02475 14.0625 7.1875 14.0625C7.36075 14.0625 7.534 13.9943 7.66295 13.8587C7.91298 13.5962 7.90281 13.1812 7.64031 12.9311L2.60622 8.15626H15.7188C16.081 8.15626 16.375 7.86226 16.375 7.50001C16.375 7.13776 16.081 6.84376 15.7188 6.84376Z" fill="#A0A5BA"/>
</svg>
