<svg width="18" height="18" viewBox="0 0 18 18" fill="none" xmlns="http://www.w3.org/2000/svg">
<rect width="18" height="18" fill="white"/>
<path d="M16.2 0H1.8C0.81 0 0 0.8106 0 1.8V16.2C0 17.1888 0.81 18 1.8 18H16.2C17.19 18 18 17.1888 18 16.2V1.8C18 0.8106 17.19 0 16.2 0ZM4.8576 15.8412H2.1V13.3884H4.8576V15.8412ZM4.8576 12.5658H2.1V10.1142H4.8576V12.5658ZM4.65 2.7282C4.2282 2.7282 3.8862 2.3868 3.8862 1.9644C3.8862 1.542 4.2282 1.2 4.65 1.2C5.0718 1.2 5.4138 1.5414 5.4138 1.9638C5.4138 2.3862 5.0718 2.7282 4.65 2.7282ZM8.5374 15.8412H5.7804V13.3884H8.5374V15.8412ZM8.5374 12.5658H5.7804V10.1142H8.5374V12.5658ZM8.5374 9.2928H5.7804V6.8412H8.5374V9.2928ZM8.2362 1.9638C8.2362 1.5414 8.5782 1.2 9 1.2C9.4218 1.2 9.7638 1.5414 9.7638 1.9638C9.7638 2.3862 9.4218 2.7276 9 2.7276C8.5782 2.7276 8.2362 2.3868 8.2362 1.9638ZM12.2196 12.5658H9.462V10.1142H12.2202V12.5658H12.2196ZM12.2196 9.2928H9.462V6.8412H12.2202V9.2928H12.2196ZM12.5862 1.9638C12.5862 1.5414 12.9282 1.2 13.35 1.2C13.7718 1.2 14.1138 1.5414 14.1138 1.9638C14.1138 2.3862 13.7718 2.7276 13.35 2.7276C12.9282 2.7276 12.5862 2.3868 12.5862 1.9638ZM15.9 12.5658H13.1424V10.1142H15.9V12.5658ZM15.9 9.2928H13.1424V6.8412H15.9V9.2928Z" fill="#9F9F9F"/>
</svg>
