<svg width="16" height="16" viewBox="0 0 16 16" fill="none" xmlns="http://www.w3.org/2000/svg">
<path d="M8.32064 7.99859L14.9339 1.38533C15.022 1.29717 15.022 1.15426 14.9339 1.0661C14.8457 0.977967 14.7028 0.977967 14.6147 1.0661L8.00141 7.67936L1.38815 1.0661C1.29846 0.979491 1.15556 0.981974 1.06892 1.07166C0.984428 1.15914 0.984428 1.29784 1.06892 1.38533L7.68218 7.99859L1.06892 14.6119C0.979236 14.6985 0.976752 14.8414 1.06339 14.9311C1.15003 15.0208 1.29293 15.0232 1.38262 14.9366C1.38451 14.9348 1.38634 14.9329 1.38815 14.9311L8.00141 8.31782L14.6147 14.9311C14.7044 15.0177 14.8473 15.0152 14.9339 14.9255C15.0184 14.8381 15.0184 14.6993 14.9339 14.6119L8.32064 7.99859Z" fill="black" stroke="#A0A5BA" stroke-width="0.8"/>
</svg>
