<svg width="60" height="60" viewBox="0 0 60 60" fill="none" xmlns="http://www.w3.org/2000/svg">
<rect width="60" height="60" rx="6" fill="#FAEFFF"/>
<path fill-rule="evenodd" clip-rule="evenodd" d="M29.4687 10.7812L28.6874 12.3438C28.3032 13.1122 27.9841 13.9062 27.1249 13.9062H20.8752C20.0159 13.9062 19.697 13.1124 19.3127 12.3438L18.5314 10.7812H14.625C13.7656 10.7812 13.0625 11.4844 13.0625 12.3438V46.0938H34.9375V12.3438C34.9375 11.4844 34.2344 10.7812 33.375 10.7812H29.4687Z" fill="white"/>
<path d="M31.3047 30.021H30.7026L21.3659 29.2561L16.0001 24.6311V17.5782C16.0001 17.2589 16.259 17 16.5783 17H31.3047C31.6241 17 31.8829 17.2589 31.8829 17.5782V29.4428C31.8829 29.7621 31.624 30.021 31.3047 30.021Z" fill="#9D9AE8"/>
<path d="M16.578 30.0203H30.7025L25.1752 24.493C24.9495 24.2674 24.5836 24.2674 24.3579 24.493L23.1453 25.7056C23.0325 25.8184 22.8495 25.8184 22.7367 25.7056L19.2395 22.2083C19.0137 21.9826 18.6478 21.9827 18.4221 22.2083L16 24.6305V29.4424C16.0001 29.7616 16.2588 30.0203 16.578 30.0203Z" fill="#D0CEFF"/>
<path d="M27.6134 22.2133C28.2219 22.2133 28.7151 21.72 28.7151 21.1115C28.7151 20.503 28.2219 20.0098 27.6134 20.0098C27.0049 20.0098 26.5116 20.503 26.5116 21.1115C26.5116 21.72 27.0049 22.2133 27.6134 22.2133Z" fill="#D0CEFF"/>
<path fill-rule="evenodd" clip-rule="evenodd" d="M28.6874 12.3438L29.4687 10.7812H18.5313L19.3126 12.3438C19.6969 13.1124 20.0159 13.9062 20.8751 13.9062H27.1249C27.9841 13.9062 28.3032 13.1123 28.6874 12.3438Z" fill="#C4C2FF"/>
<path fill-rule="evenodd" clip-rule="evenodd" d="M34.9375 46.0938H13.0625V47.6562C13.0625 48.5156 13.7656 49.2188 14.625 49.2188H33.375C34.2344 49.2188 34.9375 48.5156 34.9375 47.6562V46.0938Z" fill="#C4C2FF"/>
<path fill-rule="evenodd" clip-rule="evenodd" d="M16.9688 31.5625H31.0312C31.8942 31.5625 32.5938 32.262 32.5938 33.125C32.5938 33.988 31.8942 34.6875 31.0312 34.6875H16.9688C16.1058 34.6875 15.4062 33.988 15.4062 33.125C15.4062 32.262 16.1059 31.5625 16.9688 31.5625Z" fill="#9D9AE8"/>
<path d="M21.6566 38.5938H16.1876C15.7562 38.5938 15.4063 38.2439 15.4063 37.8125C15.4063 37.3811 15.7562 37.0312 16.1876 37.0312H21.6566C22.088 37.0312 22.4378 37.3811 22.4378 37.8125C22.4378 38.2439 22.088 38.5938 21.6566 38.5938Z" fill="#E3EAEF"/>
<path d="M21.6566 41.7188H16.1876C15.7562 41.7188 15.4063 41.3689 15.4063 40.9375C15.4063 40.5061 15.7562 40.1562 16.1876 40.1562H21.6566C22.088 40.1562 22.4378 40.5061 22.4378 40.9375C22.4378 41.3689 22.088 41.7188 21.6566 41.7188Z" fill="#E3EAEF"/>
<path d="M33.375 10H14.625C13.3327 10 12.2812 11.0514 12.2812 12.3438V47.6562C12.2812 48.9486 13.3327 50 14.625 50H33.375C34.6673 50 35.7188 48.9486 35.7188 47.6562V12.3438C35.7188 11.0514 34.6673 10 33.375 10ZM28.2046 11.5625L27.9887 11.9944C27.9583 12.055 27.9284 12.1159 27.8986 12.1764C27.5426 12.8998 27.3894 13.125 27.1249 13.125H20.8752C20.6106 13.125 20.4575 12.8998 20.1016 12.1765C20.0717 12.1159 20.0418 12.055 20.0115 11.9944L19.7955 11.5625H28.2046ZM14.625 11.5625H18.0485L18.6138 12.6931C18.6427 12.7509 18.6712 12.8088 18.6996 12.8665C19.0779 13.6349 19.5959 14.6875 20.8752 14.6875H27.1249C28.4041 14.6875 28.9222 13.6349 29.3005 12.8664C29.3288 12.8087 29.3574 12.7509 29.3862 12.693L29.9515 11.5625H33.375C33.8058 11.5625 34.1562 11.913 34.1562 12.3438V45.3125H13.8438H13.8438V12.3438C13.8438 11.913 14.1942 11.5625 14.625 11.5625ZM34.1562 47.6562C34.1562 48.087 33.8058 48.4375 33.375 48.4375H14.625C14.1942 48.4375 13.8438 48.087 13.8438 47.6562V46.875H13.8438H34.1562V47.6562Z" fill="#8481E2"/>
<path d="M48 29.5C48 34.7467 43.7467 39 38.5 39C28 39 29 39 29 29.5C29 24.2533 33.2533 20 38.5 20C43.7467 20 48 24.2533 48 29.5Z" fill="#9D9AE8"/>
<path d="M45.9245 22.0755C44.9451 21.0961 43.8016 20.3309 42.5256 19.8012C41.2495 19.2716 39.9003 19.0019 38.5152 19C38.5101 19 38.5051 19 38.5 19C35.6952 19 32.658 20.2305 30.6362 22.5416C28.9361 24.4578 28 26.929 28 29.5C28 31.3436 28.4794 33.1464 29.3881 34.7258L28.6172 37.8049C28.5079 38.2421 28.6285 38.6981 28.9414 39.026C29.3578 39.4597 29.8449 39.4597 30.1847 39.3806L33.4714 38.7227C35.0007 39.5588 36.7355 40 38.5 40C41.0715 40 43.5427 39.0637 45.4582 37.3639C48.0459 34.8465 49 32.3051 49 29.5C49 26.6956 47.9078 24.0587 45.9245 22.0755ZM44.6418 36.4433C42.9513 37.9435 40.7703 38.7695 38.5 38.7695C36.8922 38.7695 35.3134 38.3555 33.9341 37.5721C33.8143 37.5041 33.6799 37.469 33.544 37.469C33.4926 37.469 33.4408 37.474 33.3897 37.4843L29.9327 38.1761L29.9088 38.1814C29.8765 38.1892 29.8566 38.1907 29.8467 38.1907C29.8428 38.1876 29.8375 38.1827 29.8305 38.1753C29.8117 38.1557 29.8044 38.1288 29.8108 38.1037L30.6255 34.8495C30.6766 34.6451 30.645 34.4329 30.5366 34.252C29.6821 32.8263 29.2305 31.1831 29.2305 29.5C29.2305 27.2302 30.0565 25.049 31.5568 23.3581C33.4705 21.2097 36.0238 20.2305 38.5 20.2305H38.5135C40.9842 20.234 43.307 21.1982 45.0545 22.9455C46.8053 24.6964 47.7695 27.0242 47.7695 29.5C47.7695 31.9763 46.9388 34.3451 44.6418 36.4433Z" fill="#8481E2" stroke="#8481E2" stroke-width="0.5"/>
<path d="M35.3511 31.7149H34.5147C34.1686 31.7149 33.9 31.4161 33.9 31.0625C33.9 30.7089 34.1686 30.4101 34.5147 30.4101H35.6914L36.1744 28.5586H35.1323C34.7863 28.5586 34.5176 28.2598 34.5176 27.9062C34.5176 27.5526 34.7863 27.2538 35.1323 27.2538H36.5148L37.0023 25.3849L37.0023 25.3849C37.0918 25.0423 37.4288 24.8311 37.7623 24.9315M35.3511 31.7149L37.7335 25.0272M35.3511 31.7149L34.9436 33.2769C34.9436 33.2769 34.9436 33.2769 34.9436 33.2769C34.8547 33.6175 35.0381 33.9795 35.3684 34.0788L35.3683 34.0789L35.3721 34.0798C35.7473 34.1771 36.0538 33.9111 36.1283 33.6253C36.1283 33.6253 36.1283 33.6253 36.1283 33.6253L36.6267 31.7149H39.1237L38.7179 33.2703C38.6291 33.6108 38.8124 33.9729 39.1427 34.0722L39.1427 34.0723L39.1463 34.0732C39.5487 34.1779 39.829 33.9009 39.9026 33.6187L39.8059 33.5935L39.9026 33.6187L40.3993 31.7149H41.8677C42.2137 31.7149 42.4824 31.4161 42.4824 31.0625C42.4824 30.7089 42.2137 30.4101 41.8677 30.4101H40.7396L41.2227 28.5586L35.3511 31.7149ZM37.7623 24.9315L37.7335 25.0272M37.7623 24.9315C37.7623 24.9315 37.7623 24.9315 37.7623 24.9315L37.7335 25.0272M37.7623 24.9315C38.0925 25.0308 38.2759 25.3928 38.1872 25.7333L38.1872 25.7333L37.7904 27.2538M37.7335 25.0272C38.0072 25.1095 38.1669 25.4143 38.0904 25.7081L37.6871 27.2538H37.7904M37.7904 27.2538H40.2874M37.7904 27.2538L37.7643 27.3538H40.3647M40.2874 27.2538H40.3647V27.3538M40.2874 27.2538L40.2679 27.3285L40.3647 27.3538M40.2874 27.2538L40.3647 27.3538M41.9614 25.7267L41.8646 25.7015L41.9614 25.7267C41.9614 25.7267 41.9614 25.7267 41.9614 25.7267ZM41.563 27.2538H41.4597L41.4336 27.3538H41.5369L41.563 27.2538ZM39.9471 28.5586L39.464 30.4101H36.967L37.45 28.5586H39.9471Z" fill="white" stroke="white" stroke-width="0.2"/>
</svg>
