<svg width="18" height="18" viewBox="0 0 18 18" fill="none" xmlns="http://www.w3.org/2000/svg">
<path d="M0.886841 5.53516H17.1131V15.113C17.1131 16.2175 16.2177 17.113 15.1131 17.113H2.88684C1.78227 17.113 0.886841 16.2175 0.886841 15.113V5.53516Z" fill="white" stroke="#E3E3E3"/>
<path d="M0.886841 4.22705C0.886841 3.12248 1.78227 2.22705 2.88684 2.22705H15.1131C16.2177 2.22705 17.1131 3.12248 17.1131 4.22705V5.53525H0.886841V4.22705Z" fill="#EF5261"/>
<path d="M8.47534 1.41139C8.47534 1.12162 8.71024 0.886719 9.00001 0.886719C9.28978 0.886719 9.52468 1.12162 9.52468 1.41139V3.04265C9.52468 3.33241 9.28978 3.56731 9.00001 3.56731C8.71024 3.56731 8.47534 3.33241 8.47534 3.04264V1.41139Z" fill="#666666"/>
<path d="M12.6636 1.41139C12.6636 1.12162 12.8985 0.886719 13.1882 0.886719C13.478 0.886719 13.7129 1.12162 13.7129 1.41139V3.04264C13.7129 3.33241 13.478 3.56731 13.1882 3.56731C12.8985 3.56731 12.6636 3.33241 12.6636 3.04264V1.41139Z" fill="#666666"/>
<path d="M4.28723 1.41139C4.28723 1.12162 4.52214 0.886719 4.8119 0.886719C5.10167 0.886719 5.33658 1.12162 5.33658 1.41139V3.04264C5.33658 3.33241 5.10167 3.56731 4.8119 3.56731C4.52214 3.56731 4.28723 3.33241 4.28723 3.04264V1.41139Z" fill="#666666"/>
<path d="M3.88989 8.90577C4.37786 8.90577 4.77344 8.51019 4.77344 8.02222C4.77344 7.53425 4.37786 7.13867 3.88989 7.13867C3.40192 7.13867 3.00635 7.53425 3.00635 8.02222C3.00635 8.51019 3.40192 8.90577 3.88989 8.90577Z" fill="#69B0EE"/>
<path d="M7.29663 8.90577C7.7846 8.90577 8.18018 8.51019 8.18018 8.02222C8.18018 7.53425 7.7846 7.13867 7.29663 7.13867C6.80866 7.13867 6.41309 7.53425 6.41309 8.02222C6.41309 8.51019 6.80866 8.90577 7.29663 8.90577Z" fill="#69B0EE"/>
<path d="M10.7035 8.90577C11.1915 8.90577 11.587 8.51019 11.587 8.02222C11.587 7.53425 11.1915 7.13867 10.7035 7.13867C10.2155 7.13867 9.81995 7.53425 9.81995 8.02222C9.81995 8.51019 10.2155 8.90577 10.7035 8.90577Z" fill="#69B0EE"/>
<path d="M14.1102 8.90577C14.5982 8.90577 14.9938 8.51019 14.9938 8.02222C14.9938 7.53425 14.5982 7.13867 14.1102 7.13867C13.6223 7.13867 13.2267 7.53425 13.2267 8.02222C13.2267 8.51019 13.6223 8.90577 14.1102 8.90577Z" fill="#69B0EE"/>
<path d="M3.88989 12.2075C4.37786 12.2075 4.77344 11.8119 4.77344 11.324C4.77344 10.836 4.37786 10.4404 3.88989 10.4404C3.40192 10.4404 3.00635 10.836 3.00635 11.324C3.00635 11.8119 3.40192 12.2075 3.88989 12.2075Z" fill="#69B0EE"/>
<path d="M7.29663 12.2075C7.7846 12.2075 8.18018 11.8119 8.18018 11.324C8.18018 10.836 7.7846 10.4404 7.29663 10.4404C6.80866 10.4404 6.41309 10.836 6.41309 11.324C6.41309 11.8119 6.80866 12.2075 7.29663 12.2075Z" fill="#69B0EE"/>
<path d="M10.7035 12.2075C11.1915 12.2075 11.587 11.8119 11.587 11.324C11.587 10.836 11.1915 10.4404 10.7035 10.4404C10.2155 10.4404 9.81995 10.836 9.81995 11.324C9.81995 11.8119 10.2155 12.2075 10.7035 12.2075Z" fill="#69B0EE"/>
<path d="M14.1102 12.2075C14.5982 12.2075 14.9938 11.8119 14.9938 11.324C14.9938 10.836 14.5982 10.4404 14.1102 10.4404C13.6223 10.4404 13.2267 10.836 13.2267 11.324C13.2267 11.8119 13.6223 12.2075 14.1102 12.2075Z" fill="#69B0EE"/>
<path d="M3.88989 15.5093C4.37786 15.5093 4.77344 15.1137 4.77344 14.6257C4.77344 14.1378 4.37786 13.7422 3.88989 13.7422C3.40192 13.7422 3.00635 14.1378 3.00635 14.6257C3.00635 15.1137 3.40192 15.5093 3.88989 15.5093Z" fill="#69B0EE"/>
<path d="M7.29663 15.5093C7.7846 15.5093 8.18018 15.1137 8.18018 14.6257C8.18018 14.1378 7.7846 13.7422 7.29663 13.7422C6.80866 13.7422 6.41309 14.1378 6.41309 14.6257C6.41309 15.1137 6.80866 15.5093 7.29663 15.5093Z" fill="#69B0EE"/>
<path d="M10.7035 15.5093C11.1915 15.5093 11.587 15.1137 11.587 14.6257C11.587 14.1378 11.1915 13.7422 10.7035 13.7422C10.2155 13.7422 9.81995 14.1378 9.81995 14.6257C9.81995 15.1137 10.2155 15.5093 10.7035 15.5093Z" fill="#69B0EE"/>
<path d="M14.1102 15.5093C14.5982 15.5093 14.9938 15.1137 14.9938 14.6257C14.9938 14.1378 14.5982 13.7422 14.1102 13.7422C13.6223 13.7422 13.2267 14.1378 13.2267 14.6257C13.2267 15.1137 13.6223 15.5093 14.1102 15.5093Z" fill="#69B0EE"/>
</svg>
