<svg width="55" height="55" viewBox="0 0 55 55" fill="none" xmlns="http://www.w3.org/2000/svg">
<path d="M25.1338 41.0155L16.8896 38.2674L14.4728 38.2539L10.2455 50.3996C10.1108 50.7864 10.4242 51.182 10.8317 51.1393L16.7574 50.5188C16.9229 50.5015 17.0875 50.5588 17.2065 50.6751L21.4663 54.8408C21.7592 55.1272 22.2505 55.0117 22.3851 54.6249L26.6402 42.3997L25.1338 41.0155Z" fill="#0083FD"/>
<path d="M26.6402 42.3997L27.5 39.9296L15.3302 35.791L14.473 38.2539C17.9287 40.7197 22.113 42.2292 26.6402 42.3997Z" fill="#0072FC"/>
<path d="M29.8662 41.0155L38.1104 38.2674L40.5272 38.2539L44.7547 50.3997C44.8894 50.7865 44.5759 51.1821 44.1685 51.1394L38.2427 50.5189C38.0772 50.5016 37.9126 50.5589 37.7937 50.6752L33.5339 54.8409C33.2411 55.1273 32.7497 55.0118 32.6151 54.625L28.36 42.3999L29.8662 41.0155Z" fill="#0083FD"/>
<path d="M28.3598 42.3997L27.5 39.9296L39.6698 35.791L40.527 38.2539C37.0713 40.7197 32.887 42.2292 28.3598 42.3997Z" fill="#0072FC"/>
<path d="M27.4995 38.2535C7.55987 38.2535 7.54332 19.2917 7.55987 18.9583C8.08398 8.39975 16.8108 0 27.4995 0C38.1882 0 46.9151 8.39975 47.4392 18.9583C47.4557 19.2917 47.4392 38.2535 27.4995 38.2535Z" fill="#FF9838"/>
<path d="M27.5 37.9172C16.8113 37.9172 8.08478 29.5175 7.56056 18.959C7.54402 19.2923 7.53542 19.6278 7.53542 19.9652C7.53542 30.9913 16.4739 39.9298 27.5 39.9298C38.5261 39.9298 47.4646 30.9913 47.4646 19.9652C47.4646 19.6278 47.456 19.2923 47.4394 18.959C46.9152 29.5175 38.1887 37.9172 27.5 37.9172Z" fill="#FF8709"/>
<path d="M43.2278 19.9642C43.2278 26.6989 36.1862 34.7252 27.5 34.7252C18.8137 34.7252 11.7721 26.2573 11.7721 19.9642C11.7721 19.6261 11.7828 19.2906 11.8038 18.9579C12.3227 10.7405 19.1518 4.23633 27.5 4.23633C35.8482 4.23633 42.6773 10.7405 43.1961 18.9579C43.2172 19.2906 43.2278 19.6261 43.2278 19.9642Z" fill="#CE7430"/>
<path d="M27.5 33.6805C19.1519 33.6805 12.3241 27.1761 11.8051 18.959C11.7841 19.2918 11.7721 19.627 11.7721 19.9652C11.7721 28.6515 18.8137 35.6931 27.5 35.6931C36.1862 35.6931 43.2278 28.6515 43.2278 19.9652C43.2278 19.627 43.2159 19.2918 43.1949 18.959C42.6759 27.1761 35.8481 33.6805 27.5 33.6805Z" fill="#BC672E"/>
<path d="M27.5198 29.3054C24.1325 29.3054 21.9772 26.9704 21.5623 24.2C21.5246 23.9479 21.5127 23.4071 21.5127 23.4071C21.8011 22.6722 22.5168 22.1519 23.3539 22.1519C24.4458 22.1519 25.3311 23.037 25.3311 24.1291C25.3311 25.3359 26.3129 26.3178 27.5198 26.3178C28.7267 26.3178 29.7087 25.3359 29.7087 24.1291C29.7087 23.7662 29.6199 23.4237 29.463 23.1221C29.463 23.1221 29.3145 21.2577 27.6257 21.2577C25.9317 21.2577 25.8183 18.9558 25.8183 18.9558C26.1628 18.3752 26.7959 17.986 27.5199 17.986C28.7268 17.986 29.7088 17.0042 29.7088 15.7973C29.7088 14.5904 28.7268 13.6086 27.5199 13.6086C26.3131 13.6086 25.3312 14.5904 25.3312 15.7973C25.3312 16.8894 24.446 17.7745 23.354 17.7745C22.2621 17.7745 21.3768 16.8894 21.3768 15.7973C21.3768 12.4101 24.1326 9.6543 27.5198 9.6543C30.9072 9.6543 33.663 12.4101 33.663 15.7973C33.663 17.4035 33.0436 18.8674 32.0308 19.9632C32.8277 20.8254 33.381 21.9155 33.5808 23.1235C33.5808 23.1235 33.5869 23.7865 33.5294 24.1241C33.0393 27.0054 30.9072 29.3054 27.5198 29.3054Z" fill="#FFAA5C"/>
<path d="M27.5199 19.9299C26.7958 19.9299 26.1645 19.5395 25.8201 18.959C25.645 19.254 25.5428 19.5973 25.5428 19.9652C25.5428 21.0573 26.4279 21.9424 27.52 21.9424C28.364 21.9424 29.0966 22.4234 29.4616 23.125C29.6186 22.8234 29.7088 22.4817 29.7088 22.1188C29.7087 20.9117 28.7267 19.9299 27.5199 19.9299Z" fill="#EA9957"/>
<path d="M27.5198 28.261C24.5755 28.261 22.1093 26.1784 21.5144 23.4091C21.4267 23.6328 21.3767 23.8756 21.3767 24.1305C21.3767 27.5178 24.1325 30.2736 27.5198 30.2736C30.9072 30.2736 33.663 27.5178 33.663 24.1305C33.663 23.7879 33.6332 23.4524 33.5791 23.125C33.0969 26.0346 30.5642 28.261 27.5198 28.261Z" fill="#EA9957"/>
</svg>
