<svg width="55" height="55" viewBox="0 0 55 55" fill="none" xmlns="http://www.w3.org/2000/svg">
<g clip-path="url(#clip0)">
<path d="M16.6534 38.1484L14.4729 38.2548L10.2455 50.4005C10.1108 50.7874 10.4242 51.183 10.8317 51.1402L16.7574 50.5198C16.9229 50.5025 17.0875 50.5597 17.2065 50.6761L21.4663 54.8418C21.7592 55.1282 22.2505 55.0127 22.3851 54.6259L26.6402 42.4007L25.3855 41.183L16.6534 38.1484Z" fill="#FF4755"/>
<path d="M26.6402 42.3997L27.5 39.9296L15.3302 35.791L14.473 38.2539C17.9287 40.7197 22.113 42.2292 26.6402 42.3997Z" fill="#FC2B3A"/>
<path d="M38.3466 38.1484L40.5271 38.2548L44.7545 50.4005C44.8892 50.7874 44.5758 51.183 44.1683 51.1402L38.2426 50.5198C38.0771 50.5025 37.9125 50.5597 37.7936 50.6761L33.5338 54.8418C33.241 55.1282 32.7496 55.0127 32.615 54.6259L28.3599 42.4007L29.6146 41.183L38.3466 38.1484Z" fill="#FF4755"/>
<path d="M28.3598 42.3997L27.5 39.9296L39.6698 35.791L40.5271 38.2539C37.0713 40.7197 32.887 42.2292 28.3598 42.3997Z" fill="#FC2B3A"/>
<path d="M27.4991 38.6843C7.53454 38.6843 7.54292 19.2916 7.55947 18.9582C8.08358 8.39974 16.8104 0 27.4991 0C38.1878 0 46.9146 8.39975 47.4388 18.9583C47.4553 19.2917 47.4637 38.6843 27.4991 38.6843Z" fill="#FFE27A"/>
<path d="M27.5 37.9154C16.8113 37.9154 8.08479 29.5156 7.56057 18.957C7.54402 19.2904 7.53543 19.6258 7.53543 19.9633C7.53543 30.9894 16.4739 39.9278 27.5 39.9278C38.5261 39.9278 47.4646 30.9894 47.4646 19.9633C47.4646 19.6257 47.456 19.2904 47.4394 18.957C46.9152 29.5156 38.1887 37.9154 27.5 37.9154Z" fill="#F9CF58"/>
<path d="M27.5 34.3873C11.8038 34.3873 11.7828 18.9528 11.8038 18.62C12.3228 10.4026 19.1518 3.89844 27.5 3.89844C35.8482 3.89844 42.6772 10.4026 43.1961 18.62C43.2172 18.9526 43.1961 34.3873 27.5 34.3873Z" fill="#FFBA57"/>
<path d="M27.5 33.6787C19.1519 33.6787 12.3241 27.1743 11.8051 18.957C11.7841 19.2898 11.7722 19.6252 11.7722 19.9633C11.7722 28.6495 18.8138 35.6911 27.5 35.6911C36.1862 35.6911 43.2279 28.6495 43.2279 19.9633C43.2279 19.6251 43.2159 19.2898 43.1949 18.957C42.6759 27.1743 35.8481 33.6787 27.5 33.6787Z" fill="#FFAC3E"/>
<path d="M28.397 29.3056C27.3051 29.3056 26.4198 28.4205 26.4198 27.3284V26.2827V16.2477C26.4198 16.2477 25.2367 17.4342 23.8212 16.7223C22.7176 16.1673 22.7176 14.7387 22.7176 14.7387L25.1553 10.6238C25.5113 10.0229 26.158 9.6543 26.8565 9.6543H28.397C29.4889 9.6543 30.3742 10.5395 30.3742 11.6315V26.2827V27.3284C30.3742 28.4205 29.4889 29.3056 28.397 29.3056Z" fill="#FFE27A"/>
<path d="M26.1481 14.695C25.6234 15.5809 24.5076 15.965 23.577 15.524C23.2003 15.3456 22.91 15.0684 22.7169 14.7409C22.1679 15.6697 22.4652 16.8646 23.3793 17.4291C24.322 18.0113 25.5818 17.6637 26.1464 16.7103L26.4199 16.2485V14.7692C26.4199 14.6207 26.2238 14.5671 26.1481 14.695Z" fill="#F9CF58"/>
<path d="M28.397 28.2604C27.3051 28.2604 26.4198 27.3753 26.4198 26.2832V28.2958C26.4198 29.3878 27.3051 30.273 28.397 30.273C29.489 30.273 30.3742 29.3878 30.3742 28.2958V26.2832C30.3742 27.3753 29.489 28.2604 28.397 28.2604Z" fill="#F9CF58"/>
</g>
<defs>
<clipPath id="clip0">
<rect width="55" height="55" fill="white"/>
</clipPath>
</defs>
</svg>
