<svg width="41" height="55" viewBox="0 0 41 55" fill="none" xmlns="http://www.w3.org/2000/svg">
<path d="M18.2944 41.1207L9.42889 38.0547L7.47284 38.254L3.24547 50.3997C3.11076 50.7866 3.42422 51.1822 3.83167 51.1394L9.75738 50.519C9.92292 50.5017 10.0875 50.5589 10.2065 50.6753L14.4663 54.841C14.7592 55.1274 15.2505 55.0119 15.3851 54.6251L19.6402 42.3999L18.2944 41.1207Z" fill="#98DB7C"/>
<path d="M19.6402 42.3997L20.5 39.9296L8.33019 35.791L7.47296 38.2539C10.9287 40.7197 15.113 42.2292 19.6402 42.3997Z" fill="#82D361"/>
<path d="M22.7056 41.1207L31.5711 38.0547L33.5272 38.254L37.7547 50.3997C37.8893 50.7866 37.5759 51.1822 37.1685 51.1394L31.2428 50.519C31.0772 50.5017 30.9126 50.5589 30.7937 50.6753L26.5339 54.841C26.2411 55.1274 25.7497 55.0119 25.6151 54.6251L21.36 42.3999L22.7056 41.1207Z" fill="#98DB7C"/>
<path d="M21.3598 42.3997L20.5 39.9296L32.6698 35.791L33.5271 38.2539C30.0713 40.7197 25.887 42.2292 21.3598 42.3997Z" fill="#82D361"/>
<path d="M20.5 38.6115C0.560371 38.6115 0.543827 19.2917 0.56037 18.9583C1.08448 8.39975 9.81133 0 20.5 0C31.1816 0 39.904 8.38857 40.4386 18.9372C40.4559 19.2775 40.4386 38.6115 20.5 38.6115Z" fill="#E0E0E0"/>
<path d="M20.5 37.9154C9.81131 37.9154 1.08479 29.5156 0.560568 18.957C0.544025 19.2904 0.535431 19.6258 0.535431 19.9633C0.535431 30.9894 9.4739 39.9278 20.5 39.9278C31.5261 39.9278 40.4646 30.9894 40.4646 19.9633C40.4646 19.6257 40.456 19.2904 40.4394 18.957C39.9152 29.5156 31.1887 37.9154 20.5 37.9154Z" fill="#CECECE"/>
<path d="M20.5 34.4423C4.77218 34.4423 4.78281 19.2906 4.80387 18.9579C5.32282 10.7405 12.1518 4.23633 20.5 4.23633C28.8482 4.23633 35.6772 10.7405 36.1962 18.9579C36.2172 19.2906 36.1962 34.4423 20.5 34.4423Z" fill="#9E9E9E"/>
<path d="M20.5 33.6805C12.1519 33.6805 5.32407 27.1761 4.80512 18.959C4.78406 19.2918 4.77214 19.6271 4.77214 19.9652C4.77214 28.6515 11.8138 35.6931 20.5 35.6931C29.1862 35.6931 36.2278 28.6515 36.2278 19.9652C36.2278 19.627 36.2159 19.2918 36.1949 18.959C35.6759 27.1761 28.8481 33.6805 20.5 33.6805Z" fill="#898989"/>
<path d="M25.0274 29.3056H16.0123C14.9204 29.3056 14.0772 27.4048 14.1594 26.9704C14.3875 25.764 14.9242 24.6273 15.7257 23.6799L22.0689 16.1832C22.6624 15.4817 22.3976 14.7259 22.3022 14.5108C22.1863 14.2495 21.8259 13.6384 20.9863 13.61C20.962 13.6091 20.9368 13.6087 20.9115 13.6087C19.7321 13.6087 18.7727 14.5682 18.7727 15.7476C18.7727 16.8395 17.8875 17.7248 16.7955 17.7248C15.7036 17.7248 14.8183 16.8396 14.8183 15.7476C14.8183 12.3879 17.5517 9.6543 20.9115 9.6543C20.981 9.6543 21.0502 9.65548 21.119 9.65784C23.2213 9.72874 25.0595 10.9742 25.917 12.9079C26.7874 14.8705 26.4695 17.1042 25.0875 18.7375L18.7445 26.2342C18.7212 26.2618 18.6983 26.2898 18.676 26.3181H25.0275C25.7515 26.3181 26.3847 26.7073 26.7292 27.2879C26.904 27.5829 26.1193 29.3056 25.0274 29.3056Z" fill="#E0E0E0"/>
<path d="M25.0274 28.2619H16.0123C15.1626 28.2619 14.4402 27.7249 14.1606 26.9727C14.0784 27.4072 14.0351 27.8504 14.0351 28.2973C14.0351 29.3893 14.9204 30.2745 16.0123 30.2745H25.0274C26.1193 30.2745 27.0046 29.3893 27.0046 28.2973C27.0046 27.9294 26.9022 27.586 26.7273 27.2911C26.3827 27.8716 25.7514 28.2619 25.0274 28.2619Z" fill="#CECECE"/>
</svg>
