<svg width="17" height="17" viewBox="0 0 17 17" fill="none" xmlns="http://www.w3.org/2000/svg">
<path d="M8.7221 5.85325C8.64882 5.84687 8.57497 5.84375 8.5 5.84375C7.03534 5.84375 5.84375 7.03534 5.84375 8.5C5.84375 9.96466 7.03534 11.1562 8.5 11.1562C8.57497 11.1562 8.64882 11.1531 8.71951 11.147C10.087 11.0346 11.1562 9.87199 11.1562 8.5C11.1562 7.12801 10.087 5.96544 8.7221 5.85325Z" fill="#A0A5BA"/>
<path d="M16.4553 7.18539C16.104 6.8341 15.6371 6.64062 15.1406 6.64062H14.5994C14.4797 6.24674 14.3219 5.86596 14.1276 5.50202L14.5105 5.11906C15.2353 4.3943 15.2354 3.21473 14.5106 2.48947C14.1595 2.13838 13.6925 1.94504 13.1956 1.94504C12.6989 1.94504 12.232 2.13838 11.8809 2.48944L11.498 2.8724C11.134 2.6781 10.7533 2.52028 10.3594 2.40052V1.85938C10.3594 0.978728 9.73359 0.212367 8.87018 0.0369551C8.74809 0.0124512 8.62355 0 8.5 0C8.00351 0 7.53664 0.193475 7.18532 0.544764C6.83407 0.896053 6.64062 1.36292 6.64062 1.85938V2.40052C6.24674 2.52025 5.86596 2.67806 5.50202 2.8724L5.11906 2.48944C4.3943 1.76468 3.21473 1.76461 2.48944 2.48944C2.13838 2.84053 1.94504 3.30753 1.94504 3.80441C1.94504 4.30107 2.13838 4.76797 2.48944 5.11906L2.8724 5.50202C2.67806 5.86596 2.52028 6.24677 2.40052 6.64062H1.85938C0.834096 6.64062 0 7.47475 0 8.5C0 8.99645 0.193441 9.46332 0.54473 9.81461C0.89602 10.1659 1.36289 10.3594 1.85938 10.3594H2.40055C2.52028 10.7533 2.6781 11.134 2.87244 11.498L2.48947 11.8809C1.76471 12.6057 1.76465 13.7853 2.48944 14.5105C2.84049 14.8616 3.30753 15.0549 3.80441 15.0549C4.3011 15.0549 4.76797 14.8616 5.11906 14.5105L5.50202 14.1276C5.86596 14.3219 6.24674 14.4797 6.64062 14.5994V15.1406C6.64062 16.1659 7.47472 17 8.5 17C8.62355 17 8.74809 16.9875 8.87018 16.963C8.87058 16.963 8.87094 16.9629 8.87134 16.9628C9.22904 16.8902 9.55523 16.7147 9.81464 16.4552C10.1659 16.1039 10.3594 15.6371 10.3594 15.1406V14.5995C10.7533 14.4797 11.134 14.3219 11.498 14.1276L11.8809 14.5106C12.2434 14.873 12.7194 15.0542 13.1956 15.0541C13.6717 15.0541 14.148 14.8729 14.5106 14.5105C14.8616 14.1594 15.055 13.6924 15.055 13.1956C15.055 12.6989 14.8616 12.232 14.5106 11.8809L14.1276 11.4979C14.3219 11.134 14.4797 10.7532 14.5995 10.3593H15.1406C16.1659 10.3593 17 9.52521 17 8.49997C17 8.00355 16.8066 7.53668 16.4553 7.18539ZM11.2301 11.0252C10.5961 11.7102 9.73639 12.1295 8.80915 12.2057C8.71047 12.2143 8.60562 12.2188 8.5 12.2188C6.44947 12.2188 4.78125 10.5506 4.78125 8.50003C4.78125 6.44951 6.44947 4.78128 8.5 4.78128C8.60562 4.78128 8.71047 4.78577 8.81174 4.79456C9.73639 4.87057 10.5961 5.28979 11.2301 5.97487C11.8676 6.6638 12.2188 7.56062 12.2188 8.5C12.2188 9.43938 11.8676 10.3362 11.2301 11.0252Z" fill="#A0A5BA"/>
</svg>
