<svg width="60" height="60" viewBox="0 0 60 60" fill="none" xmlns="http://www.w3.org/2000/svg">
<rect width="60" height="60" rx="6" fill="#FEFAE9"/>
<path d="M38.5938 13.9062H41.7188V26.4062H38.5938V13.9062Z" fill="#FFE8C7"/>
<path d="M38.5938 17.0312H41.7188V20.1562H38.5938V17.0312Z" fill="white"/>
<path d="M38.5938 23.2812H41.7188V26.4062H38.5938V23.2812Z" fill="white"/>
<path d="M38.5938 37.3438V12.3438C38.5938 11.4808 37.8942 10.7812 37.0312 10.7812H18.2812C17.4183 10.7812 16.7188 11.4808 16.7188 12.3438V37.3438C16.7188 38.2067 17.4183 38.9062 18.2812 38.9062H37.0312C37.8942 38.9062 38.5938 38.2067 38.5938 37.3438Z" fill="#FFE0A5"/>
<mask id="path-6-inside-1" fill="white">
<rect x="23" y="16" width="13" height="7" rx="1"/>
</mask>
<rect x="23" y="16" width="13" height="7" rx="1" fill="white" stroke="#FFC876" stroke-width="2.8" mask="url(#path-6-inside-1)"/>
<path d="M20.625 10.7812V38.9062H18.2812C17.418 38.9062 16.7188 38.207 16.7188 37.3438V12.3438C16.7188 11.4805 17.418 10.7812 18.2812 10.7812H20.625Z" fill="#FFD69C"/>
<path d="M43.2812 49.2188H35.4688C34.6058 49.2188 33.9062 48.5192 33.9062 47.6562V32.0312C33.9062 31.1683 34.6058 30.4688 35.4688 30.4688H43.2812C44.1442 30.4688 44.8438 31.1683 44.8438 32.0312V47.6562C44.8438 48.5192 44.1442 49.2188 43.2812 49.2188Z" fill="#FFE8C7"/>
<path d="M43.2812 29.6875H39.375V27.1875H41.7188C42.1502 27.1875 42.5 26.8377 42.5 26.4062V13.9062C42.5 13.4748 42.1502 13.125 41.7188 13.125H39.375V12.3438C39.375 11.0514 38.3236 10 37.0312 10H18.2812C16.9889 10 15.9375 11.0514 15.9375 12.3438V13.125H15.1562C14.7248 13.125 14.375 13.4748 14.375 13.9062C14.375 14.3377 14.7248 14.6875 15.1562 14.6875H15.9375V16.25H15.1562C14.7248 16.25 14.375 16.5998 14.375 17.0312C14.375 17.4627 14.7248 17.8125 15.1562 17.8125H15.9375V19.375H15.1562C14.7248 19.375 14.375 19.7248 14.375 20.1562C14.375 20.5877 14.7248 20.9375 15.1562 20.9375H15.9375V22.5H15.1562C14.7248 22.5 14.375 22.8498 14.375 23.2812C14.375 23.7127 14.7248 24.0625 15.1562 24.0625H15.9375V25.625H15.1562C14.7248 25.625 14.375 25.9748 14.375 26.4062C14.375 26.8377 14.7248 27.1875 15.1562 27.1875H15.9375V28.75H15.1562C14.7248 28.75 14.375 29.0998 14.375 29.5312C14.375 29.9627 14.7248 30.3125 15.1562 30.3125H15.9375V31.875H15.1562C14.7248 31.875 14.375 32.2248 14.375 32.6562C14.375 33.0877 14.7248 33.4375 15.1562 33.4375H15.9375V35H15.1562C14.7248 35 14.375 35.3498 14.375 35.7812C14.375 36.2127 14.7248 36.5625 15.1562 36.5625H15.9375V37.3438C15.9375 38.6361 16.9889 39.6875 18.2812 39.6875H33.125V47.6562C33.125 48.9486 34.1764 50 35.4688 50H43.2812C44.5736 50 45.625 48.9486 45.625 47.6562V32.0312C45.625 30.7389 44.5736 29.6875 43.2812 29.6875ZM39.375 20.9375H40.9375V22.5H39.375V20.9375ZM40.9375 19.375H39.375V17.8125H40.9375V19.375ZM39.375 25.625V24.0625H40.9375V25.625H39.375ZM40.9375 14.6875V16.25H39.375V14.6875H40.9375ZM17.5 37.3438V12.3438C17.5 11.913 17.8505 11.5625 18.2812 11.5625H19.8438V38.125H18.2812C17.8505 38.125 17.5 37.7745 17.5 37.3438ZM21.4062 38.125V11.5625H37.0312C37.462 11.5625 37.8125 11.913 37.8125 12.3438V29.6875H35.4688C34.1764 29.6875 33.125 30.7389 33.125 32.0312V38.125H21.4062ZM44.0625 47.6562C44.0625 48.087 43.712 48.4375 43.2812 48.4375H35.4688C35.038 48.4375 34.6875 48.087 34.6875 47.6562V32.0312C34.6875 31.6005 35.038 31.25 35.4688 31.25H43.2812C43.712 31.25 44.0625 31.6005 44.0625 32.0312V47.6562Z" fill="#FFB545"/>
<path d="M40.9375 46.875H37.8125C37.381 46.875 37.0312 46.5252 37.0312 46.0938C37.0312 45.6623 37.381 45.3125 37.8125 45.3125H40.9375C41.369 45.3125 41.7188 45.6623 41.7188 46.0938C41.7188 46.5252 41.369 46.875 40.9375 46.875Z" fill="white"/>
<path d="M39.375 34.375C39.8065 34.375 40.1562 34.0252 40.1562 33.5938C40.1562 33.1623 39.8065 32.8125 39.375 32.8125C38.9435 32.8125 38.5938 33.1623 38.5938 33.5938C38.5938 34.0252 38.9435 34.375 39.375 34.375Z" fill="#E8C613"/>
</svg>
