<svg width="60" height="60" viewBox="0 0 60 60" fill="none" xmlns="http://www.w3.org/2000/svg">
<rect width="60" height="60" rx="6" fill="#D1FFD3"/>
<g clip-path="url(#clip0)">
<path d="M45.2353 47.936H13.9137C13.5765 47.936 13.3032 47.6626 13.3032 47.3255V12.212C13.3032 11.8749 13.5765 11.6016 13.9137 11.6016H45.2353C45.5724 11.6016 45.8457 11.8749 45.8457 12.212V47.3255C45.8457 47.6626 45.5724 47.936 45.2353 47.936Z" fill="#D3EFFB" stroke="#A2FFA6" stroke-width="1.5"/>
<path d="M46.8694 49.2505H13.9817C13.5966 49.2505 13.3032 48.9457 13.3032 48.5927V12.2593C13.3032 11.9064 13.5966 11.6016 13.9817 11.6016H46.8694C47.2545 11.6016 47.5479 11.9064 47.5479 12.2593V48.5927C47.5479 48.9457 47.2545 49.2505 46.8694 49.2505Z" fill="#CFFFD3" stroke="#65E26B" stroke-width="1.5"/>
<path d="M44.8037 13H43.7916V44.5412C43.7916 45.2124 43.2559 45.7565 42.5953 45.7565H15V46.7847C15 47.4559 15.5356 48 16.1963 48H44.8037C45.4644 48 46 47.4559 46 46.7847V14.2153C46 13.5441 45.4644 13 44.8037 13V13Z" fill="#7DFF83"/>
<path d="M18.0696 43.9263C18.5956 43.9263 19.022 43.4999 19.022 42.9739C19.022 42.4479 18.5956 42.0215 18.0696 42.0215C17.5436 42.0215 17.1172 42.4479 17.1172 42.9739C17.1172 43.4999 17.5436 43.9263 18.0696 43.9263Z" fill="#7DFF83"/>
<path d="M21.4352 43.9263C21.9613 43.9263 22.3877 43.4999 22.3877 42.9739C22.3877 42.4479 21.9613 42.0215 21.4352 42.0215C20.9092 42.0215 20.4828 42.4479 20.4828 42.9739C20.4828 43.4999 20.9092 43.9263 21.4352 43.9263Z" fill="#7DFF83"/>
<path d="M24.801 43.9263C25.327 43.9263 25.7534 43.4999 25.7534 42.9739C25.7534 42.4479 25.327 42.0215 24.801 42.0215C24.275 42.0215 23.8486 42.4479 23.8486 42.9739C23.8486 43.4999 24.275 43.9263 24.801 43.9263Z" fill="#7DFF83"/>
<path d="M32.1898 15.8248H29.2436C28.868 15.8248 28.5636 15.5204 28.5636 15.1448C28.5636 14.7692 28.868 14.4648 29.2436 14.4648H32.1898C32.5654 14.4648 32.8697 14.7692 32.8697 15.1448C32.8697 15.5204 32.5653 15.8248 32.1898 15.8248Z" fill="#5AD15F"/>
<path d="M25.7534 15.8248H17.707C17.3314 15.8248 17.027 15.5204 17.027 15.1448C17.027 14.7692 17.3314 14.4648 17.707 14.4648H25.7534C26.129 14.4648 26.4334 14.7692 26.4334 15.1448C26.4334 15.5204 26.129 15.8248 25.7534 15.8248Z" fill="#5AD15F"/>
<path d="M41.1249 39.1246H40.1804L25.5343 37.9247L17.1173 30.6697V19.6062C17.1173 19.1053 17.5233 18.6992 18.0243 18.6992H41.1249C41.6258 18.6992 42.0319 19.1053 42.0319 19.6062V38.2176C42.0319 38.7185 41.6257 39.1246 41.1249 39.1246Z" fill="#35CD3C"/>
<path d="M18.0237 39.1234H40.1802L31.5098 30.4529C31.1557 30.0989 30.5818 30.0989 30.2277 30.4529L28.3256 32.355C28.1486 32.532 27.8616 32.532 27.6846 32.355L22.1987 26.869C21.8446 26.515 21.2706 26.5151 20.9165 26.869L17.1171 30.6685V38.2169C17.1172 38.7175 17.523 39.1234 18.0237 39.1234Z" fill="#A1FFA6"/>
<path d="M35.3344 26.8784C36.2889 26.8784 37.0627 26.1046 37.0627 25.1501C37.0627 24.1956 36.2889 23.4219 35.3344 23.4219C34.3799 23.4219 33.6061 24.1956 33.6061 25.1501C33.6061 26.1046 34.3799 26.8784 35.3344 26.8784Z" fill="#A1FFA6"/>
</g>
<defs>
<clipPath id="clip0">
<rect width="40" height="40" fill="white" transform="translate(10 10)"/>
</clipPath>
</defs>
</svg>
