<svg width="16" height="16" viewBox="0 0 16 16" fill="none" xmlns="http://www.w3.org/2000/svg">
<path d="M10.685 1.83071C8.24407 -0.610236 4.27125 -0.610236 1.83031 1.83071C-0.610103 4.27218 -0.610103 8.24446 1.83031 10.6859C4.00403 12.8591 7.3895 13.092 9.82886 11.395C9.88018 11.6379 9.99765 11.8696 10.1866 12.0585L13.7413 15.6133C14.2594 16.1303 15.0965 16.1303 15.6119 15.6133C16.1294 15.0958 16.1294 14.2587 15.6119 13.7428L12.0571 10.187C11.8692 9.99964 11.6369 9.88164 11.3941 9.83031C13.0921 7.39043 12.8593 4.00549 10.685 1.83071ZM9.5627 9.56362C7.74032 11.386 4.77447 11.386 2.95263 9.56362C1.13131 7.74125 1.13131 4.77592 2.95263 2.95355C4.77447 1.13171 7.74032 1.13171 9.5627 2.95355C11.3851 4.77592 11.3851 7.74125 9.5627 9.56362Z" fill="black"/>
</svg>
