<svg width="18" height="18" viewBox="0 0 18 18" fill="none" xmlns="http://www.w3.org/2000/svg">
<path d="M6.36328 5.30859C5.19993 5.30859 4.25391 6.25461 4.25391 7.41797C4.25391 7.98135 4.47328 8.51129 4.87188 8.90937C4.97078 9.00823 5.02639 9.14214 5.02639 9.2822C5.02639 9.36819 5.00527 9.45214 4.96614 9.52734H6.36328C7.52664 9.52734 8.47266 8.58132 8.47266 7.41797C8.47266 6.25461 7.52664 5.30859 6.36328 5.30859Z" fill="#A0A5BA"/>
<path d="M13.2188 1.08984H4.78125C2.16411 1.08984 0 3.2188 0 5.83594V9C0 11.439 1.88395 13.4536 4.25391 13.7167V16.3828C4.25391 16.596 4.38212 16.7886 4.57938 16.87C4.7739 16.9512 5.00207 16.9077 5.15412 16.7557L8.16367 13.7461H13.2188C15.8359 13.7461 18 11.6171 18 9V5.83594C18 3.2188 15.8359 1.08984 13.2188 1.08984ZM6.36328 10.582H3.72656C3.51338 10.582 3.32075 10.4538 3.2394 10.2566C3.15752 10.0593 3.20284 9.83272 3.35373 9.68183L3.78373 9.25183C3.40418 8.71984 3.19922 8.08489 3.19922 7.41797C3.19922 5.6732 4.61851 4.25391 6.36328 4.25391C8.10805 4.25391 9.52734 5.6732 9.52734 7.41797C9.52734 9.16274 8.10805 10.582 6.36328 10.582ZM14.2734 9.52735H12.1641C11.8726 9.52735 11.6367 9.29148 11.6367 9C11.6367 8.70852 11.8726 8.47266 12.1641 8.47266H12.6914V7.10898L12.5369 7.26349C12.3309 7.46948 11.9972 7.46948 11.7912 7.26349C11.5852 7.05751 11.5852 6.72378 11.7912 6.5178L12.8459 5.46311C12.9962 5.31222 13.2229 5.26588 13.4206 5.34878C13.6178 5.43013 13.7461 5.62275 13.7461 5.83594V8.47266H14.2734C14.5649 8.47266 14.8008 8.70852 14.8008 9C14.8008 9.29148 14.5649 9.52735 14.2734 9.52735Z" fill="#A0A5BA"/>
</svg>
