<svg width="60" height="60" viewBox="0 0 60 60" fill="none" xmlns="http://www.w3.org/2000/svg">
<rect width="60" height="60" rx="6" fill="#EDF8FF"/>
<path d="M37.8125 47.1875H22.1875C21.3245 47.1875 20.625 46.488 20.625 45.625V14.375C20.625 13.512 21.3245 12.8125 22.1875 12.8125H37.8125C38.6755 12.8125 39.375 13.512 39.375 14.375V45.625C39.375 46.488 38.6755 47.1875 37.8125 47.1875Z" fill="#CCF5FC"/>
<mask id="path-3-inside-1" fill="white">
<rect x="20" y="18" width="20" height="12" rx="1"/>
</mask>
<rect x="20" y="18" width="20" height="12" rx="1" fill="white" stroke="#60A4FF" stroke-width="4" mask="url(#path-3-inside-1)"/>
<path d="M25.3125 12.8125H34.6875V15.9375H25.3125V12.8125Z" fill="white"/>
<path d="M33.125 44.8438H26.875C26.4435 44.8438 26.0938 44.4939 26.0938 44.0625C26.0938 43.6311 26.4435 43.2812 26.875 43.2812H33.125C33.5564 43.2812 33.9062 43.6311 33.9062 44.0625C33.9062 44.4939 33.5564 44.8438 33.125 44.8438Z" fill="white"/>
<path d="M10.7812 26.875H14.6875L17.8125 29.2188V26.875H23.2812V17.5H10.7812V26.875Z" fill="white"/>
<path d="M20 21.4062H14.0625C13.6311 21.4062 13.2812 21.0565 13.2812 20.625C13.2812 20.1935 13.6311 19.8438 14.0625 19.8438H20C20.4315 19.8438 20.7812 20.1935 20.7812 20.625C20.7812 21.0565 20.4315 21.4062 20 21.4062Z" fill="#DFEDFF"/>
<path d="M17.8125 24.5312H14.0625C13.6311 24.5312 13.2812 24.1815 13.2812 23.75C13.2812 23.3185 13.6311 22.9688 14.0625 22.9688H17.8125C18.2439 22.9688 18.5938 23.3185 18.5938 23.75C18.5938 24.1815 18.2439 24.5312 17.8125 24.5312Z" fill="#DFEDFF"/>
<path d="M49.2188 30H45.3125L42.1875 32.3438V30H36.7188V20.625H49.2188V30Z" fill="white"/>
<path d="M24.3438 36.0781C25.6382 36.0781 26.6875 35.0288 26.6875 33.7344C26.6875 32.44 25.6382 31.3906 24.3438 31.3906C23.0493 31.3906 22 32.44 22 33.7344C22 35.0288 23.0493 36.0781 24.3438 36.0781Z" fill="white"/>
<path d="M24.3438 34.5156C24.7752 34.5156 25.125 34.1658 25.125 33.7344C25.125 33.3029 24.7752 32.9531 24.3438 32.9531C23.9123 32.9531 23.5625 33.3029 23.5625 33.7344C23.5625 34.1658 23.9123 34.5156 24.3438 34.5156Z" fill="#CCF5FC"/>
<path d="M24.3438 34.5156C25.0239 34.5156 25.6022 34.9503 25.8168 35.5569C25.4143 35.8827 24.902 36.0781 24.3438 36.0781C23.7855 36.0781 23.2732 35.8827 22.8707 35.5569C23.0853 34.9503 23.6636 34.5156 24.3438 34.5156Z" fill="#CCF5FC"/>
<path d="M24.5781 31C23.1996 31 22.0781 32.1215 22.0781 33.5C22.0781 34.8785 23.1996 36 24.5781 36C25.9566 36 27.0781 34.8785 27.0781 33.5C27.0781 32.1215 25.9566 31 24.5781 31ZM23.6881 35.0471C23.8848 34.7535 24.2166 34.5714 24.5781 34.5714C24.9397 34.5714 25.2715 34.7535 25.4682 35.0471C25.2059 35.1986 24.9021 35.2857 24.5781 35.2857C24.2541 35.2857 23.9503 35.1986 23.6881 35.0471ZM24.221 33.5C24.221 33.3031 24.3812 33.1429 24.5781 33.1429C24.7751 33.1429 24.9353 33.3031 24.9353 33.5C24.9353 33.6969 24.7751 33.8571 24.5781 33.8571C24.3812 33.8571 24.221 33.6969 24.221 33.5ZM26.0062 34.5707C25.8601 34.3761 25.6766 34.2149 25.4685 34.0952C25.5828 33.9248 25.6496 33.7201 25.6496 33.5C25.6496 32.9092 25.1689 32.4286 24.5781 32.4286C23.9873 32.4286 23.5067 32.9092 23.5067 33.5C23.5067 33.7201 23.5735 33.9248 23.6877 34.0952C23.4796 34.2149 23.2962 34.3762 23.15 34.5707C22.9256 34.2722 22.7924 33.9014 22.7924 33.5C22.7924 32.5154 23.5935 31.7143 24.5781 31.7143C25.5628 31.7143 26.3638 32.5154 26.3638 33.5C26.3638 33.9014 26.2307 34.2722 26.0062 34.5707Z" fill="#60A4FF"/>
<path d="M24.3438 42.0781C25.6382 42.0781 26.6875 41.0288 26.6875 39.7344C26.6875 38.44 25.6382 37.3906 24.3438 37.3906C23.0493 37.3906 22 38.44 22 39.7344C22 41.0288 23.0493 42.0781 24.3438 42.0781Z" fill="white"/>
<path d="M24.3438 40.5156C24.7752 40.5156 25.125 40.1658 25.125 39.7344C25.125 39.3029 24.7752 38.9531 24.3438 38.9531C23.9123 38.9531 23.5625 39.3029 23.5625 39.7344C23.5625 40.1658 23.9123 40.5156 24.3438 40.5156Z" fill="#CCF5FC"/>
<path d="M24.3438 40.5156C25.0239 40.5156 25.6022 40.9503 25.8168 41.5569C25.4143 41.8827 24.902 42.0781 24.3438 42.0781C23.7855 42.0781 23.2732 41.8827 22.8707 41.5569C23.0853 40.9503 23.6636 40.5156 24.3438 40.5156Z" fill="#CCF5FC"/>
<path d="M24.5781 37C23.1996 37 22.0781 38.1215 22.0781 39.5C22.0781 40.8785 23.1996 42 24.5781 42C25.9566 42 27.0781 40.8785 27.0781 39.5C27.0781 38.1215 25.9566 37 24.5781 37ZM23.6881 41.0471C23.8848 40.7535 24.2166 40.5714 24.5781 40.5714C24.9397 40.5714 25.2715 40.7535 25.4682 41.0471C25.2059 41.1986 24.9021 41.2857 24.5781 41.2857C24.2541 41.2857 23.9503 41.1986 23.6881 41.0471ZM24.221 39.5C24.221 39.3031 24.3812 39.1429 24.5781 39.1429C24.7751 39.1429 24.9353 39.3031 24.9353 39.5C24.9353 39.6969 24.7751 39.8571 24.5781 39.8571C24.3812 39.8571 24.221 39.6969 24.221 39.5ZM26.0062 40.5707C25.8601 40.3761 25.6766 40.2149 25.4685 40.0952C25.5828 39.9248 25.6496 39.7201 25.6496 39.5C25.6496 38.9092 25.1689 38.4286 24.5781 38.4286C23.9873 38.4286 23.5067 38.9092 23.5067 39.5C23.5067 39.7201 23.5735 39.9248 23.6877 40.0952C23.4796 40.2149 23.2962 40.3762 23.15 40.5707C22.9256 40.2722 22.7924 39.9014 22.7924 39.5C22.7924 38.5154 23.5935 37.7143 24.5781 37.7143C25.5628 37.7143 26.3638 38.5154 26.3638 39.5C26.3638 39.9014 26.2307 40.2722 26.0062 40.5707Z" fill="#60A4FF"/>
<path d="M49.2188 19.8438H40.1562V14.375C40.1562 13.0827 39.1048 12.0312 37.8125 12.0312H22.1875C20.8952 12.0312 19.8438 13.0827 19.8438 14.375V16.7188H10.7812C10.3498 16.7188 10 17.0686 10 17.5V26.875C10 27.3065 10.3498 27.6562 10.7812 27.6562H14.4271L17.3438 29.8438C17.4816 29.9471 17.6466 30 17.8126 30C17.9316 30 18.0514 29.9727 18.1619 29.9175C18.4266 29.7852 18.5938 29.5147 18.5938 29.2188V27.6562H19.8438V45.625C19.8438 46.9173 20.8952 47.9688 22.1875 47.9688H37.8125C39.1048 47.9688 40.1562 46.9173 40.1562 45.625V30.7812H41.4062V32.3438C41.4062 32.6397 41.5734 32.9102 41.8381 33.0425C41.9487 33.0978 42.0683 33.125 42.1874 33.125C42.3534 33.125 42.5184 33.0721 42.6562 32.9688L45.5729 30.7812H49.2188C49.6502 30.7812 50 30.4314 50 30V20.625C50 20.1935 49.6502 19.8438 49.2188 19.8438ZM26.0938 13.5938H33.9062V15.1562H26.0938V13.5938ZM17.8125 26.0938C17.3811 26.0938 17.0312 26.4435 17.0312 26.875V27.6562L15.1562 26.25C15.0211 26.1486 14.8566 26.0938 14.6875 26.0938H11.5625V18.2812H22.5V26.0938H17.8125ZM38.5938 45.625C38.5938 46.0558 38.2433 46.4062 37.8125 46.4062H22.1875C21.7567 46.4062 21.4062 46.0558 21.4062 45.625V27.6562H23.2812C23.7127 27.6562 24.0625 27.3065 24.0625 26.875V17.5C24.0625 17.0686 23.7127 16.7188 23.2812 16.7188H21.4062V14.375C21.4062 13.9442 21.7567 13.5938 22.1875 13.5938H24.5312V15.9375C24.5312 16.3689 24.881 16.7188 25.3125 16.7188H34.6875C35.1189 16.7188 35.4688 16.3689 35.4688 15.9375V13.5938H37.8125C38.2433 13.5938 38.5938 13.9442 38.5938 14.375V19.8438H36.7188C36.2873 19.8438 35.9375 20.1935 35.9375 20.625V30C35.9375 30.4314 36.2873 30.7812 36.7188 30.7812H38.5938V45.625ZM48.4375 29.2188H45.3125C45.1434 29.2188 44.9789 29.2736 44.8438 29.375L42.9688 30.7812V30C42.9688 29.5685 42.6189 29.2188 42.1875 29.2188H37.5V21.4062H48.4375V29.2188Z" fill="#60A4FF"/>
<path d="M45.9375 24.5312H40C39.5686 24.5312 39.2188 24.1815 39.2188 23.75C39.2188 23.3185 39.5686 22.9688 40 22.9688H45.9375C46.3689 22.9688 46.7188 23.3185 46.7188 23.75C46.7188 24.1815 46.3689 24.5312 45.9375 24.5312Z" fill="#DFEDFF"/>
<path d="M43.75 27.6562H40C39.5686 27.6562 39.2188 27.3065 39.2188 26.875C39.2188 26.4435 39.5686 26.0938 40 26.0938H43.75C44.1814 26.0938 44.5312 26.4435 44.5312 26.875C44.5312 27.3065 44.1814 27.6562 43.75 27.6562Z" fill="#DFEDFF"/>
<rect x="28" y="33" width="9" height="2" rx="1" fill="#60A4FF"/>
<rect x="28" y="39" width="5" height="2" rx="1" fill="#60A4FF"/>
</svg>
