<svg width="18" height="16" viewBox="0 0 18 16" fill="none" xmlns="http://www.w3.org/2000/svg">
<path d="M13.2188 0.0898056H4.78125C2.16411 0.0898056 0 2.21876 0 4.8359V7.99997C0 10.4389 1.88395 12.4536 4.25391 12.7167V15.3828C4.25391 15.596 4.38212 15.7886 4.57938 15.8699C4.7739 15.9511 5.00207 15.9077 5.15412 15.7556L8.16367 12.7461H13.2188C15.8359 12.7461 18 10.6171 18 7.99997V4.8359C18 2.21876 15.8359 0.0898056 13.2188 0.0898056ZM6.36328 9.582H3.72656C3.51338 9.582 3.32075 9.45378 3.2394 9.25652C3.15752 9.05929 3.20284 8.83268 3.35373 8.68179L3.78373 8.25179C3.40418 7.71981 3.19922 7.08485 3.19922 6.41793C3.19922 4.67316 4.61851 3.25387 6.36328 3.25387C8.10805 3.25387 9.52734 4.67316 9.52734 6.41793C9.52734 8.1627 8.10805 9.582 6.36328 9.582ZM14.2734 8.52731H12.1641C11.8726 8.52731 11.6367 8.29145 11.6367 7.99997C11.6367 7.70849 11.8726 7.47262 12.1641 7.47262H12.6914V6.10895L12.5369 6.26346C12.3309 6.46944 11.9972 6.46944 11.7912 6.26346C11.5852 6.05748 11.5852 5.72374 11.7912 5.51776L12.8459 4.46307C12.9962 4.31218 13.2229 4.26584 13.4206 4.34874C13.6178 4.43009 13.7461 4.62271 13.7461 4.8359V7.47262H14.2734C14.5649 7.47262 14.8008 7.70849 14.8008 7.99997C14.8008 8.29145 14.5649 8.52731 14.2734 8.52731Z" fill="#A0A5BA"/>
</svg>
