<svg width="14" height="14" viewBox="0 0 14 14" fill="none" xmlns="http://www.w3.org/2000/svg">
<path fill-rule="evenodd" clip-rule="evenodd" d="M5.12924 11.8547H8.87819C9.47326 11.8547 9.9642 11.3681 9.9642 10.7783C9.9642 10.1885 9.47326 9.70195 8.87819 9.70195H8.67735H5.12924C4.58623 9.70195 4.08042 9.49553 3.70106 9.16377C3.24732 8.76567 2.95722 8.19063 2.95722 7.54924C2.95722 6.90785 3.24732 6.32544 3.70106 5.9347C4.08786 5.60295 4.58623 5.39652 5.12924 5.39652H8.87819C9.47326 5.39652 9.9642 4.90995 9.9642 4.32017C9.9642 3.73038 9.47326 3.24381 8.87819 3.24381H5.12924C4.36308 3.24381 3.64899 3.44287 3.02417 3.78936C2.16131 4.25382 1.47698 5.01317 1.09762 5.92733C0.889347 6.42865 0.777771 6.9742 0.777771 7.54924V12.9236C0.777771 13.5134 1.26871 14 1.86378 14C2.45885 14 2.94978 13.5208 2.94978 12.931C2.94978 12.3412 3.43328 11.8547 4.03579 11.8547H5.12924ZM8.87819 8.62559H6.96652H5.33007H5.12924C4.53416 8.62559 4.04323 8.13902 4.04323 7.54924C4.04323 6.95945 4.53416 6.47288 5.12924 6.47288H5.33007H6.96652H8.87819C9.42119 6.47288 9.927 6.26646 10.3064 5.9347C10.7601 5.5366 11.0502 4.96156 11.0502 4.32017C11.0502 3.67878 10.7601 3.09637 10.3064 2.70563C9.91957 2.37388 9.42119 2.16746 8.87819 2.16746H1.86378C1.26871 2.15271 0.777771 1.67351 0.777771 1.07636C0.777771 0.4792 1.26871 0 1.86378 0H8.87075C9.63691 0 10.351 0.199052 10.9758 0.54555C11.8387 1.02475 12.523 1.7841 12.9024 2.69826C13.1106 3.19958 13.2222 3.74513 13.2222 4.3128C13.2222 4.88046 13.1106 5.43339 12.9024 5.92733C12.523 6.8415 11.8387 7.60084 10.9758 8.08004C10.3584 8.42654 9.63691 8.62559 8.87819 8.62559Z" fill="#A0A5BA"/>
</svg>
