<svg width="18" height="20" viewBox="0 0 18 20" fill="none" xmlns="http://www.w3.org/2000/svg">
<path d="M17.4375 10L17.9973 8.90777L17.1942 7.97992L17.4758 6.78551L16.4728 6.0784L16.4589 4.85133L15.3158 4.40492L15.0096 3.21656L13.7932 3.05516L13.2125 1.97402L11.9927 2.10855L11.1692 1.19883L10.0177 1.6232L9.00003 0.9375L7.98237 1.6232L6.83085 1.19883L6.00726 2.10855L4.78753 1.97406L4.20687 3.0552L2.99034 3.2166L2.68425 4.405L1.54112 4.85141L1.52722 6.07848L0.524248 6.78555L0.805811 7.97996L0.00268555 8.90777L0.562529 10L0.00272466 11.0922L0.805811 12.0201L0.524248 13.2145L1.52726 13.9216L1.54116 15.1487L2.68429 15.5951L2.99042 16.7834L4.2069 16.9448L4.78757 18.026L6.00733 17.8914L6.83089 18.8012L7.98237 18.3768L9.00003 19.0625L10.0177 18.3768L11.1692 18.8012L11.9928 17.8914L13.2125 18.0259L13.7932 16.9448L15.0097 16.7834L15.3158 15.595L16.4589 15.1486L16.4728 13.9215L17.4758 13.2145L17.1942 12.02L17.9974 11.0922L17.4375 10Z" fill="#0054FE"/>
<path d="M9 17.1875C12.9695 17.1875 16.1875 13.9695 16.1875 10C16.1875 6.03045 12.9695 2.8125 9 2.8125C5.03045 2.8125 1.8125 6.03045 1.8125 10C1.8125 13.9695 5.03045 17.1875 9 17.1875Z" fill="#EFF4FF"/>
<path d="M8.98965 16.25C8.77163 16.2496 8.55378 16.238 8.33695 16.2152L8.40258 15.5937C8.59794 15.6142 8.79423 15.6246 8.99066 15.6249L8.98965 16.25ZM9.64238 16.2174L9.57891 15.5956C9.77421 15.5756 9.96834 15.5455 10.1605 15.5053L10.2886 16.117C10.0751 16.1617 9.85938 16.1952 9.64238 16.2174V16.2174ZM7.69105 16.1127C7.47761 16.0671 7.26669 16.0104 7.05918 15.9428L7.25313 15.3486C7.43973 15.4095 7.62941 15.4605 7.82137 15.5014L7.69105 16.1127ZM10.9212 15.9491L10.7293 15.3543C10.9162 15.294 11.0997 15.2239 11.2791 15.1443L11.5326 15.7155C11.3331 15.8041 11.129 15.8821 10.9212 15.9492V15.9491ZM6.44875 15.707C6.24968 15.6178 6.0554 15.5183 5.86672 15.4088L6.18051 14.8683C6.35028 14.9668 6.52508 15.0564 6.70422 15.1366L6.44875 15.707ZM12.1159 15.4189L11.8038 14.8773C11.974 14.7792 12.1389 14.6723 12.298 14.557L12.6648 15.063C12.4881 15.1911 12.3049 15.31 12.1159 15.4191V15.4189ZM5.31902 15.0514C5.14285 14.9228 4.97348 14.7851 4.8116 14.6389L5.23062 14.1752C5.37638 14.3069 5.52887 14.431 5.6875 14.5469L5.31902 15.0514ZM13.1735 14.6523L12.756 14.1875C12.9022 14.0563 13.0414 13.9175 13.1732 13.7719L13.6367 14.1909C13.4904 14.3526 13.3358 14.5066 13.1735 14.6523ZM4.34992 14.1761C4.20411 14.0139 4.06686 13.8441 3.93871 13.6676L4.44453 13.3004C4.55994 13.4594 4.68352 13.6122 4.81477 13.7583L4.34992 14.1761ZM14.0496 13.6836L13.5449 13.3148C13.6607 13.1563 13.7682 12.9918 13.867 12.8221L14.4073 13.1362C14.2976 13.3247 14.1782 13.5074 14.0496 13.6836ZM3.58266 13.1187C3.47362 12.9297 3.37452 12.7351 3.28578 12.5357L3.85691 12.2818C3.93673 12.4612 4.02586 12.6363 4.12395 12.8065L3.58266 13.1187ZM14.7057 12.5543L14.1354 12.2986C14.2157 12.1196 14.2865 11.9365 14.3477 11.75L14.9417 11.9443C14.8738 12.1516 14.795 12.3553 14.7057 12.5544V12.5543ZM3.05199 11.9245C2.98491 11.7168 2.92876 11.5057 2.88379 11.2921L3.49543 11.1634C3.53584 11.3556 3.58634 11.5454 3.64672 11.7323L3.05199 11.9245ZM15.1119 11.3125L14.5007 11.1818C14.5417 10.9898 14.5726 10.7959 14.5933 10.6007L15.2148 10.6666C15.1918 10.8835 15.1575 11.0991 15.1119 11.3125ZM2.78301 10.6459C2.76101 10.4313 2.75 10.2157 2.75 10V9.99344H3.375V10C3.375 10.1944 3.38492 10.3887 3.40473 10.582L2.78301 10.6459ZM15.25 10.0131H14.625V10C14.625 9.80354 14.6149 9.60722 14.5947 9.4118L15.2163 9.34727C15.2388 9.56412 15.25 9.78199 15.25 10V10.0131ZM3.40602 9.40566L2.78445 9.34043C2.80727 9.12346 2.8414 8.90782 2.88672 8.69441L3.49805 8.82434C3.45725 9.01637 3.42653 9.21042 3.40602 9.40566ZM14.5033 8.83047C14.4627 8.63836 14.4121 8.44851 14.3516 8.26172L14.9461 8.06883C15.0134 8.27647 15.0698 8.4875 15.115 8.70105L14.5033 8.83047ZM3.65051 8.25605L3.05625 8.0625C3.1239 7.85501 3.20238 7.65122 3.29137 7.45195L3.86199 7.70699C3.78195 7.88619 3.71136 8.06946 3.65051 8.25605ZM14.1406 7.71242C14.0606 7.53309 13.9713 7.35808 13.873 7.18809L14.4141 6.875C14.5233 7.06395 14.6226 7.2585 14.7115 7.45785L14.1406 7.71242ZM4.12996 7.18316L3.58926 6.86965C3.69872 6.68099 3.81792 6.49816 3.94637 6.32187L4.45145 6.69008C4.33579 6.84874 4.22848 7.01333 4.12996 7.18316ZM13.5518 6.69453C13.4362 6.5357 13.3124 6.38297 13.181 6.23695L13.6455 5.81898C13.7914 5.98104 13.9288 6.15054 14.0572 6.3268L13.5518 6.69453ZM4.82262 6.23297L4.35859 5.8143C4.50475 5.65241 4.65919 5.49819 4.82129 5.35227L5.23926 5.81687C5.0933 5.9483 4.95423 6.08718 4.82262 6.23297ZM12.7647 5.82031C12.6189 5.68885 12.4664 5.56506 12.3077 5.44945L12.6755 4.94414C12.8518 5.07258 13.0213 5.2101 13.1833 5.35613L12.7647 5.82031ZM5.69703 5.44621L5.32961 4.94059C5.50617 4.81236 5.68929 4.6934 5.8782 4.58418L6.1907 5.12543C6.02067 5.22374 5.85589 5.33087 5.69703 5.44637V5.44621ZM11.8142 5.12832C11.6443 5.03002 11.4694 4.94065 11.2902 4.86059L11.545 4.28988C11.7442 4.37885 11.9385 4.47815 12.1273 4.58738L11.8142 5.12832ZM6.71523 4.85828L6.46094 4.2873C6.66038 4.19852 6.86436 4.12028 7.07203 4.05293L7.26461 4.64746C7.07793 4.70808 6.89455 4.77845 6.71523 4.85828ZM10.741 4.64953C10.5543 4.58887 10.3645 4.53802 10.1725 4.49719L10.3023 3.88582C10.5158 3.93119 10.7267 3.98769 10.9343 4.05508L10.741 4.64953ZM7.83352 4.49602L7.70461 3.88441C7.9181 3.83951 8.13378 3.80577 8.35078 3.78332L8.41492 4.40504C8.21966 4.4252 8.02559 4.45559 7.83352 4.49609V4.49602ZM9.59133 4.40566C9.39593 4.38535 9.19962 4.37511 9.00316 4.375L9.00348 3.75C9.22148 3.75012 9.43934 3.76148 9.65617 3.78402L9.59133 4.40566Z" fill="#0054FE"/>
<path d="M9 14.6875C11.5888 14.6875 13.6875 12.5888 13.6875 10C13.6875 7.41117 11.5888 5.3125 9 5.3125C6.41117 5.3125 4.3125 7.41117 4.3125 10C4.3125 12.5888 6.41117 14.6875 9 14.6875Z" fill="#C7E9FF"/>
<path d="M5.18994 12.7309C5.87629 13.6879 6.89765 14.3515 8.05092 14.5897C9.20418 14.828 10.4049 14.6235 11.4143 14.0169C12.4236 13.4103 13.1677 12.446 13.4986 11.3158C13.8295 10.1857 13.7229 8.97234 13.2001 7.91715C12.2799 9.23903 11.0905 10.3513 9.70996 11.1809C8.32945 12.0106 6.78906 12.5388 5.18994 12.7309Z" fill="#ADDBF9"/>
<path d="M7.75006 12.8125C7.66797 12.8126 7.58666 12.7965 7.51083 12.7651C7.43499 12.7336 7.3661 12.6875 7.30814 12.6294L6.05814 11.3794C5.99925 11.3216 5.95239 11.2526 5.92029 11.1766C5.88819 11.1005 5.87147 11.0189 5.8711 10.9363C5.87073 10.8538 5.88672 10.772 5.91814 10.6956C5.94956 10.6193 5.99579 10.5499 6.05416 10.4916C6.11254 10.4332 6.18189 10.387 6.25823 10.3556C6.33457 10.3241 6.41637 10.3082 6.49892 10.3085C6.58147 10.3089 6.66313 10.3256 6.73918 10.3577C6.81523 10.3898 6.88417 10.4367 6.94201 10.4956L7.75006 11.3036L10.7456 8.30809C10.8632 8.19262 11.0216 8.12825 11.1864 8.12899C11.3512 8.12972 11.509 8.19551 11.6255 8.31203C11.7421 8.42855 11.8079 8.58637 11.8086 8.75115C11.8093 8.91594 11.745 9.07435 11.6295 9.19192L8.19201 12.6294C8.13404 12.6876 8.06516 12.7337 7.98931 12.7651C7.91346 12.7965 7.83215 12.8126 7.75006 12.8125Z" fill="#0054FE"/>
</svg>
